<svg id="visual" viewBox="0 0 960 540" width="960" height="540" xmlns="http://www.w3.org/2000/svg" xmlns:xlink="http://www.w3.org/1999/xlink" version="1.1"><path d="M0 66L87 44L175 109L262 55L349 39L436 98L524 39L611 114L698 55L785 71L873 55L960 66L960 0L873 0L785 0L698 0L611 0L524 0L436 0L349 0L262 0L175 0L87 0L0 0Z" fill="#00cc8e"></path><path d="M0 158L87 131L175 228L262 260L349 255L436 179L524 222L611 276L698 276L785 163L873 217L960 190L960 64L873 53L785 69L698 53L611 112L524 37L436 96L349 37L262 53L175 107L87 42L0 64Z" fill="#00b98a"></path><path d="M0 357L87 390L175 347L262 422L349 395L436 438L524 303L611 411L698 411L785 330L873 390L960 379L960 188L873 215L785 161L698 274L611 274L524 220L436 177L349 253L262 258L175 226L87 129L0 156Z" fill="#00a784"></path><path d="M0 401L87 455L175 411L262 492L349 471L436 476L524 395L611 465L698 444L785 401L873 471L960 438L960 377L873 388L785 328L698 409L611 409L524 301L436 436L349 393L262 420L175 345L87 388L0 355Z" fill="#00957c"></path><path d="M0 541L87 541L175 541L262 541L349 541L436 541L524 541L611 541L698 541L785 541L873 541L960 541L960 436L873 469L785 399L698 442L611 463L524 393L436 474L349 469L262 490L175 409L87 453L0 399Z" fill="#038373"></path></svg>