<svg t="1711967918680" class="icon" viewBox="0 0 1024 1024" version="1.1" xmlns="http://www.w3.org/2000/svg" p-id="6492" width="200" height="200"><path d="M512 0h-1.024C228.352 1.024 0 229.376 0 512s228.352 510.976 510.976 512h1.024c282.624 0 512-229.376 512-512S794.624 0 512 0z m0 983.04h-1.024C250.88 982.016 40.96 772.096 40.96 512S250.88 41.984 510.976 40.96h1.024c260.096 0 471.04 210.944 471.04 471.04S772.096 983.04 512 983.04z" p-id="6493" fill="#8a8a8a"></path><path d="M674.816 305.152c-46.08 11.264-93.184 17.408-142.336 19.456V491.52h166.912c-2.048-68.608-10.24-132.096-24.576-186.368zM532.48 84.992V286.72c45.056-1.024 90.112-7.168 132.096-17.408-31.744-102.4-81.92-168.96-132.096-184.32zM358.4 268.288c43.008 10.24 88.064 16.384 133.12 18.432V84.992c-50.176 14.336-101.376 80.896-133.12 183.296z m460.8-58.368C762.88 153.6 692.224 112.64 612.352 93.184c36.864 37.888 66.56 95.232 89.088 165.888 40.96-12.288 79.872-28.672 117.76-49.152zM736.256 491.52h204.8c-4.096-95.232-39.936-183.296-97.28-252.928-41.984 23.552-87.04 41.984-133.12 56.32 15.36 59.392 24.576 125.952 25.6 196.608z m-412.672 0H491.52V323.584c-49.152-1.024-97.28-8.192-143.36-19.456-14.336 55.296-22.528 118.784-24.576 187.392z m375.808 40.96H532.48v166.912c49.152 1.024 96.256 8.192 142.336 19.456 14.336-54.272 22.528-117.76 24.576-186.368zM348.16 719.872c46.08-11.264 94.208-18.432 143.36-19.456V532.48H323.584c2.048 69.632 10.24 132.096 24.576 187.392z m143.36 219.136V737.28c-46.08 1.024-90.112 7.168-134.144 18.432 32.768 102.4 83.968 168.96 134.144 183.296z m120.832-8.192C692.224 911.36 762.88 870.4 819.2 814.08c-36.864-19.456-76.8-35.84-117.76-49.152-22.528 70.656-53.248 128-89.088 165.888zM410.624 94.208c-78.848 19.456-149.504 60.416-204.8 116.736 36.864 19.456 75.776 35.84 116.736 48.128 21.504-70.656 51.2-128 88.064-164.864z m301.056 634.88c47.104 14.336 91.136 32.768 133.12 56.32 57.344-69.632 93.184-156.672 97.28-252.928H737.28c-2.048 70.656-11.264 137.216-25.6 196.608zM532.48 737.28v201.728c50.176-15.36 100.352-81.92 132.096-184.32-41.984-10.24-87.04-15.36-132.096-17.408zM311.296 294.912c-46.08-14.336-90.112-32.768-132.096-56.32-57.344 69.632-92.16 157.696-97.28 252.928h204.8c1.024-70.656 10.24-137.216 24.576-196.608zM285.696 532.48H81.92c4.096 95.232 39.936 183.296 97.28 252.928 41.984-22.528 86.016-41.984 132.096-56.32-14.336-59.392-23.552-125.952-25.6-196.608zM204.8 814.08C260.096 870.4 330.752 911.36 409.6 930.816c-35.84-37.888-66.56-95.232-89.088-164.864-38.912 11.264-78.848 27.648-115.712 48.128z" p-id="6494" fill="#8a8a8a"></path><path d="M674.816 305.152c-46.08 11.264-93.184 17.408-142.336 19.456V491.52h166.912c-2.048-68.608-10.24-132.096-24.576-186.368zM532.48 84.992V286.72c45.056-1.024 90.112-7.168 132.096-17.408-31.744-102.4-81.92-168.96-132.096-184.32zM358.4 268.288c43.008 10.24 88.064 16.384 133.12 18.432V84.992c-50.176 14.336-101.376 80.896-133.12 183.296z m460.8-58.368C762.88 153.6 692.224 112.64 612.352 93.184c36.864 37.888 66.56 95.232 89.088 165.888 40.96-12.288 79.872-28.672 117.76-49.152zM736.256 491.52h204.8c-4.096-95.232-39.936-183.296-97.28-252.928-41.984 23.552-87.04 41.984-133.12 56.32 15.36 59.392 24.576 125.952 25.6 196.608z m-412.672 0H491.52V323.584c-49.152-1.024-97.28-8.192-143.36-19.456-14.336 55.296-22.528 118.784-24.576 187.392z m375.808 40.96H532.48v166.912c49.152 1.024 96.256 8.192 142.336 19.456 14.336-54.272 22.528-117.76 24.576-186.368zM348.16 719.872c46.08-11.264 94.208-18.432 143.36-19.456V532.48H323.584c2.048 69.632 10.24 132.096 24.576 187.392z m143.36 219.136V737.28c-46.08 1.024-90.112 7.168-134.144 18.432 32.768 102.4 83.968 168.96 134.144 183.296z m120.832-8.192C692.224 911.36 762.88 870.4 819.2 814.08c-36.864-19.456-76.8-35.84-117.76-49.152-22.528 70.656-53.248 128-89.088 165.888zM410.624 94.208c-78.848 19.456-149.504 60.416-204.8 116.736 36.864 19.456 75.776 35.84 116.736 48.128 21.504-70.656 51.2-128 88.064-164.864z m301.056 634.88c47.104 14.336 91.136 32.768 133.12 56.32 57.344-69.632 93.184-156.672 97.28-252.928H737.28c-2.048 70.656-11.264 137.216-25.6 196.608zM532.48 737.28v201.728c50.176-15.36 100.352-81.92 132.096-184.32-41.984-10.24-87.04-15.36-132.096-17.408zM311.296 294.912c-46.08-14.336-90.112-32.768-132.096-56.32-57.344 69.632-92.16 157.696-97.28 252.928h204.8c1.024-70.656 10.24-137.216 24.576-196.608zM285.696 532.48H81.92c4.096 95.232 39.936 183.296 97.28 252.928 41.984-22.528 86.016-41.984 132.096-56.32-14.336-59.392-23.552-125.952-25.6-196.608zM204.8 814.08C260.096 870.4 330.752 911.36 409.6 930.816c-35.84-37.888-66.56-95.232-89.088-164.864-38.912 11.264-78.848 27.648-115.712 48.128z" p-id="6495" fill="#8a8a8a"></path></svg>